<svg width="201" height="200" viewBox="0 0 201 200" fill="none" xmlns="http://www.w3.org/2000/svg">
<g clip-path="url(#clip0_84_2801)">
<path fill-rule="evenodd" clip-rule="evenodd" d="M49.8325 0.232056H189.008C193.651 0.232056 193.651 7.19651 189.008 7.19651H49.8325C45.3055 7.1969 45.3055 0.232056 49.8325 0.232056Z" fill="#299AB3"/>
<path fill-rule="evenodd" clip-rule="evenodd" d="M56.6813 39.4661H182.16C186.803 39.4661 186.803 46.4305 182.16 46.4305H177.169V61.2883H190.053C191.91 61.2883 193.536 59.6633 193.536 57.6899V24.4922C193.536 22.6352 191.911 21.0098 190.053 21.0098H48.9039C47.0469 21.0098 45.4215 22.6348 45.4215 24.4922V57.6903C45.4215 59.6637 47.0465 61.2887 48.9039 61.2887H61.6723V46.4309H56.6809C52.1543 46.4305 52.1543 39.4661 56.6813 39.4661ZM177.169 121.648C190.053 124.782 199.455 136.274 199.455 150.087C199.455 164.829 188.66 177.017 174.383 179.106C169.275 191.178 157.087 199.768 143.158 199.768C106.942 199.768 70.7266 199.768 34.5105 199.768C15.8223 199.652 0.5 184.33 0.5 165.641V139.64C0.5 133.256 5.72344 128.032 12.2238 128.032H61.6727V68.2532H48.9043C43.2164 68.2532 38.4574 63.4942 38.4574 57.6903V24.4922C38.4574 18.8043 43.2164 14.0453 48.9043 14.0453H190.054C195.741 14.0453 200.5 18.8043 200.5 24.4922V57.6903C200.5 63.4942 195.741 68.2532 190.053 68.2532H177.169V121.648ZM166.605 179.106C152.792 177.481 141.997 166.106 141.069 152.177H115.068C110.425 152.177 110.425 145.212 115.068 145.212H141.417C143.738 131.399 155.694 120.836 170.204 120.836V46.4305H68.7531V165.641C68.6371 176.32 63.6457 186.303 55.1723 192.803H143.158C153.141 192.687 161.846 187.232 166.605 179.106ZM170.204 127.8C182.508 127.8 192.491 137.783 192.491 150.087C192.491 162.391 182.508 172.374 170.204 172.374C157.9 172.374 147.917 162.391 147.917 150.087C147.917 137.783 157.9 127.8 170.204 127.8ZM34.6266 192.803C19.6527 192.803 7.46445 180.499 7.46445 165.641V139.64C7.46445 137.086 9.55391 134.997 12.2234 134.997H61.6723V165.641C61.6723 180.499 49.4844 192.803 34.6266 192.803Z" fill="#299AB3"/>
<path fill-rule="evenodd" clip-rule="evenodd" d="M83.611 68.9496H96.4954C100.906 68.9496 104.621 72.6641 104.621 77.075V89.9594C104.621 94.3703 100.906 98.0848 96.4954 98.0848H83.611C79.2001 98.0848 75.4856 94.3703 75.4856 89.9594V77.075C75.4856 72.6641 79.2001 68.9496 83.611 68.9496ZM83.611 75.9141H96.4954C97.0758 75.9141 97.6563 76.4946 97.6563 77.075V89.9594C97.6563 90.5399 97.0758 91.1203 96.4954 91.1203H83.611C83.0305 91.1203 82.4501 90.5399 82.4501 89.9594V77.075C82.4501 76.4946 83.0305 75.9141 83.611 75.9141Z" fill="#299AB3"/>
<path fill-rule="evenodd" clip-rule="evenodd" d="M83.611 105.049H96.4954C100.906 105.049 104.621 108.648 104.621 113.175V125.943C104.621 130.47 100.906 134.184 96.4954 134.184H83.611C79.2001 134.184 75.4856 130.47 75.4856 125.943V113.175C75.4856 108.648 79.2001 105.049 83.611 105.049ZM83.611 112.014H96.4954C97.0758 112.014 97.6563 112.479 97.6563 113.175V125.943C97.6563 126.64 97.0758 127.104 96.4954 127.104H83.611C83.0305 127.104 82.4501 126.64 82.4501 125.943V113.175C82.4501 112.478 83.0305 112.014 83.611 112.014Z" fill="#299AB3"/>
<path fill-rule="evenodd" clip-rule="evenodd" d="M83.611 141.149H96.4954C100.906 141.149 104.621 144.748 104.621 149.275V162.043C104.621 166.57 100.906 170.168 96.4954 170.168H83.611C79.2001 170.168 75.4856 166.57 75.4856 162.043V149.275C75.4856 144.748 79.2001 141.149 83.611 141.149ZM83.611 148.114H96.4954C97.0758 148.114 97.6563 148.578 97.6563 149.275V162.043C97.6563 162.74 97.0758 163.204 96.4954 163.204H83.611C83.0305 163.204 82.4501 162.74 82.4501 162.043V149.275C82.4501 148.578 83.0305 148.114 83.611 148.114Z" fill="#299AB3"/>
<path fill-rule="evenodd" clip-rule="evenodd" d="M115.068 73.0121H159.989C164.516 73.0121 164.516 79.9766 159.989 79.9766H115.068C110.425 79.977 110.425 73.0121 115.068 73.0121Z" fill="#299AB3"/>
<path fill-rule="evenodd" clip-rule="evenodd" d="M115.068 86.9415H130.506C135.033 86.9415 135.033 93.9059 130.506 93.9059H115.068C110.425 93.9059 110.425 86.9415 115.068 86.9415Z" fill="#299AB3"/>
<path fill-rule="evenodd" clip-rule="evenodd" d="M115.068 109.112H159.989C164.516 109.112 164.516 116.077 159.989 116.077H115.068C110.425 116.077 110.425 109.112 115.068 109.112Z" fill="#299AB3"/>
<path fill-rule="evenodd" clip-rule="evenodd" d="M115.068 123.041H130.506C135.033 123.041 135.033 130.005 130.506 130.005H115.068C110.425 130.006 110.425 123.041 115.068 123.041Z" fill="#299AB3"/>
<path fill-rule="evenodd" clip-rule="evenodd" d="M115.068 159.141H130.506C135.033 159.141 135.033 166.106 130.506 166.106H115.068C110.425 166.106 110.425 159.141 115.068 159.141Z" fill="#299AB3"/>
<path fill-rule="evenodd" clip-rule="evenodd" d="M157.088 150.087C157.088 147.766 162.891 139.988 163.704 138.712C166.374 134.649 172.642 138.596 169.972 142.774L167.65 146.373H179.722C184.598 146.373 184.598 153.802 179.722 153.802H167.65L169.972 157.4C172.642 161.579 166.373 165.525 163.704 161.463C162.543 159.605 157.088 152.177 157.088 150.087Z" fill="#299AB3"/>
</g>
<defs>
<clipPath id="clip0_84_2801">
<rect width="200" height="200" fill="white" transform="translate(0.5)"/>
</clipPath>
</defs>
</svg>
