<svg width="200" height="200" viewBox="0 0 200 200" fill="none" xmlns="http://www.w3.org/2000/svg">
<g clip-path="url(#clip0_63_2)">
<path d="M187.172 80.2344C183.693 75.2489 177.944 72.2106 171.816 72.2106C162.226 72.2106 154.298 79.4617 153.226 88.7696C149.203 90.3801 146.395 94.3465 146.395 98.8164C146.395 104.783 151.249 109.638 157.216 109.638H168.087C169.705 109.638 171.017 108.327 171.017 106.708C171.017 105.09 169.705 103.779 168.087 103.779H157.216C154.48 103.779 152.254 101.553 152.254 98.8164C152.254 96.3864 154.067 94.2813 156.471 93.9192C157.911 93.7024 158.973 92.4614 158.964 91.0051C158.964 90.9676 158.963 90.9309 158.962 90.8906C158.98 83.8184 164.74 78.0703 171.816 78.0703C176.39 78.0703 180.656 80.5364 182.951 84.5055C183.463 85.3922 184.401 85.9461 185.425 85.968C190.231 86.07 194.141 90.0637 194.141 94.8703C194.141 99.7821 190.145 103.779 185.232 103.779H181.752C180.134 103.779 178.822 105.09 178.822 106.708C178.822 108.327 180.134 109.638 181.752 109.638H185.232C193.375 109.638 200 103.013 200 94.8703C200 87.4489 194.379 81.1969 187.172 80.2344Z" fill="#299AB3"/>
<path d="M158.366 170.597C154.887 165.611 149.139 162.573 143.011 162.573C140.409 162.573 137.932 163.11 135.679 164.073V156.586C137.22 156.499 138.443 155.227 138.443 153.664V141.827C138.443 140.208 137.131 138.897 135.513 138.897H125.027V128.798C125.027 126.725 124.106 124.785 122.498 123.475C120.882 122.159 118.782 121.645 116.736 122.067C114.471 122.534 112.452 123.279 110.65 124.204L128.884 81.1773L129.615 83.0855C130.062 84.2516 131.173 84.9676 132.352 84.9676C132.7 84.9676 133.054 84.9051 133.399 84.773C134.91 84.1941 135.666 82.5 135.087 80.9887L133.824 77.6926C134.561 77.7695 135.309 77.8102 136.066 77.8102C141.27 77.8098 146.925 75.9996 152.602 72.4426C160.47 67.5129 167.342 59.693 170.985 51.5246C177.491 36.9348 170.755 19.698 155.967 13.1012C146.139 8.71758 134.749 10.0586 126.393 16.2785C121.614 6.64883 111.581 0 100 0C88.4196 0 78.3864 6.64883 73.6079 16.2789C65.2508 10.059 53.8614 8.71914 44.0329 13.1016C29.2457 19.6988 22.509 36.9356 29.0157 51.525C32.6586 59.6934 39.5305 67.5133 47.3985 72.443C53.0758 76.0004 58.7301 77.8105 63.934 77.8105C64.6918 77.8105 65.4391 77.7699 66.1766 77.693L64.9137 80.9894C64.3348 82.5004 65.0903 84.1945 66.6012 84.7738C66.9461 84.9059 67.3004 84.9684 67.6489 84.9684C68.8274 84.9684 69.9383 84.2523 70.3852 83.0863L71.1164 81.1781L89.3504 124.205C87.5481 123.28 85.5297 122.535 83.2637 122.068C81.2176 121.646 79.1176 122.16 77.502 123.477C75.895 124.786 74.9735 126.726 74.9735 128.799V138.898H64.4872C62.8692 138.898 61.5575 140.209 61.5575 141.828V153.666C61.5575 155.228 62.7809 156.5 64.3211 156.587V174.002C64.3211 175.62 65.6329 176.932 67.2508 176.932C68.8688 176.932 70.1805 175.62 70.1805 174.002V156.595H89.1793V194.141H70.1797V187.723C70.1797 186.105 68.868 184.793 67.25 184.793C65.6321 184.793 64.3204 186.105 64.3204 187.723V197.07C64.3204 198.689 65.6321 200 67.25 200H156.427C164.57 200 171.195 193.375 171.195 185.232C171.195 177.811 165.574 171.559 158.366 170.597ZM118.799 194.141H110.822V156.595H129.82V168.028C126.892 170.942 124.918 174.815 124.421 179.132C120.398 180.742 117.589 184.709 117.589 189.179C117.589 190.966 118.028 192.653 118.799 194.141ZM91.0918 150.735V144.757H108.908V150.735H91.0918ZM80.5903 73.998L77.2875 72.7324C80.236 70.0598 82.5778 66.4016 84.1868 61.9453C87.1024 64.7332 90.3809 66.852 93.9141 68.0082L91.418 70.5043C90.2739 71.6488 90.2739 73.5035 91.418 74.6477C92.5621 75.7914 94.4172 75.7918 95.561 74.6473L97.0704 73.1379V127.405L76.4196 78.6754L78.4938 79.4703C80.0047 80.0488 81.6993 79.2937 82.2778 77.7828C82.8563 76.2711 82.1008 74.577 80.5903 73.998ZM115.814 61.9453C117.423 66.402 119.764 70.0598 122.713 72.7324L119.41 73.998C117.899 74.577 117.144 76.2711 117.723 77.7824C118.302 79.2937 119.995 80.048 121.507 79.4699L123.581 78.675L102.93 127.405V73.1375L104.439 74.6469C105.011 75.2191 105.761 75.5051 106.511 75.5051C107.26 75.5051 108.01 75.2191 108.582 74.6473C109.726 73.5027 109.726 71.648 108.582 70.5039L106.086 68.0078C109.62 66.852 112.898 64.7328 115.814 61.9453ZM132.584 150.735H114.768V144.757H132.584V150.735ZM117.919 127.806C118.348 127.718 118.654 127.901 118.797 128.018C118.936 128.131 119.168 128.383 119.168 128.798V138.898H104.424L104.779 138.059C106.879 134.262 110.897 129.254 117.919 127.806ZM153.58 18.4527C165.417 23.7336 170.824 37.4992 165.633 49.1387C162.446 56.2859 156.411 63.1418 149.491 67.4777C142.46 71.8824 135.447 73.0793 130.248 70.7617C125.543 68.6641 122.057 63.6922 120.346 56.6926C125.941 48.9062 129.368 38.5383 129.368 28.9727C129.368 26.5984 129.07 24.2926 128.522 22.0824C135.282 16.1734 145.141 14.6883 153.58 18.4527ZM100 5.85938C112.963 5.85938 123.508 16.2281 123.508 28.973C123.508 36.7988 120.789 45.518 116.235 52.2973C111.609 59.1852 105.691 63.1352 100 63.1352C94.309 63.1352 88.3914 59.1852 83.7649 52.2973C79.2106 45.5184 76.4918 36.7988 76.4918 28.973C76.4918 16.2281 87.0375 5.85938 100 5.85938ZM50.5098 67.4777C43.5895 63.1414 37.5547 56.2859 34.3672 49.1387C29.1762 37.4992 34.5832 23.7336 46.42 18.4527C54.859 14.6895 64.7184 16.1734 71.4786 22.0828C70.9301 24.2926 70.6329 26.5988 70.6329 28.973C70.6329 38.5387 74.0602 48.9066 79.6547 56.693C77.9434 63.6926 74.4575 68.6645 69.7524 70.7621C64.5539 73.0805 57.5407 71.8832 50.5098 67.4777ZM80.8325 128.798C80.8325 128.383 81.0649 128.131 81.2032 128.018C81.3469 127.901 81.652 127.716 82.0809 127.806C89.1032 129.254 93.1219 134.262 95.2215 138.059L95.5766 138.898H80.8325V128.798ZM67.4161 144.757H85.2325V150.735H67.4161V144.757ZM95.0379 156.595H104.962V194.141H95.0379V156.595ZM156.427 194.141H128.411C125.675 194.141 123.448 191.915 123.448 189.179C123.448 186.748 125.261 184.643 127.665 184.281C129.105 184.064 130.167 182.823 130.159 181.367C130.159 181.33 130.158 181.293 130.157 181.253C130.175 174.18 135.934 168.432 143.011 168.432C147.584 168.432 151.851 170.898 154.145 174.868C154.657 175.755 155.595 176.309 156.619 176.33C161.425 176.432 165.335 180.426 165.335 185.233C165.335 190.145 161.339 194.141 156.427 194.141Z" fill="#299AB3"/>
<path d="M40.7773 105.094C37.298 100.108 31.55 97.0703 25.4215 97.0703C15.8316 97.0703 7.90313 104.321 6.83125 113.629C2.80859 115.24 0 119.206 0 123.675C0 129.643 4.85469 134.497 10.8215 134.497H18.4012C20.0191 134.497 21.3309 133.186 21.3309 131.568C21.3309 129.949 20.0191 128.638 18.4012 128.638H10.8215C8.08555 128.638 5.85938 126.412 5.85938 123.675C5.85938 121.245 7.67227 119.141 10.0762 118.779C11.516 118.562 12.5781 117.321 12.5699 115.864C12.5699 115.827 12.5688 115.79 12.5676 115.75C12.5859 108.678 18.3449 102.93 25.4215 102.93C29.9949 102.93 34.2613 105.396 36.5559 109.365C37.0684 110.252 38.0066 110.806 39.0301 110.827C43.8359 110.929 47.7457 114.923 47.7457 119.73C47.7457 124.642 43.7496 128.638 38.8375 128.638H32.1184C30.5004 128.638 29.1887 129.95 29.1887 131.568C29.1887 133.186 30.5004 134.498 32.1184 134.498H38.8379C46.9809 134.498 53.6055 127.873 53.6055 119.73C53.6051 112.308 47.9844 106.056 40.7773 105.094Z" fill="#299AB3"/>
</g>
<defs>
<clipPath id="clip0_63_2">
<rect width="200" height="200" fill="white"/>
</clipPath>
</defs>
</svg>
