<svg width="201" height="200" viewBox="0 0 201 200" fill="none" xmlns="http://www.w3.org/2000/svg">
<path d="M164.152 148.496C156.247 159.352 143.684 160.382 136.015 160.622C133.397 167.91 128.511 179.541 115.7 183.705C113.048 184.563 110.272 185 107.45 185C98.1865 185 91.0652 180.468 85.7476 176.833C80.4436 180.456 73.3189 185 64.0505 185C61.2251 185 58.4473 184.565 55.7987 183.705C42.9756 179.538 38.0949 167.893 35.4836 160.622C27.8251 160.381 15.2536 159.355 7.3486 148.499C-1.08681 136.904 2.81469 123.698 4.9108 116.605L5.3069 115.257C5.9563 113 8.3074 111.704 10.5684 112.352C12.8243 113.003 14.1231 115.361 13.4737 117.614L13.0589 119.025C11.1464 125.495 8.2513 135.294 14.2217 143.498C20.2193 151.736 30.4754 151.998 37.2602 152.168L38.627 152.205C40.3865 152.251 41.9352 153.375 42.5217 155.036L42.9552 156.265C45.2196 162.706 48.6451 172.445 58.4218 175.621C60.2221 176.206 62.1125 176.5 64.0454 176.5C71.2245 176.5 76.8787 172.612 81.8699 169.183L83.3676 168.161C84.8075 167.191 86.7081 167.182 88.1463 168.17L89.6304 169.187C94.6148 172.612 100.271 176.5 107.45 176.5C109.384 176.5 111.277 176.206 113.077 175.619C122.85 172.444 126.274 162.704 128.54 156.26L128.98 155.019C129.574 153.366 131.117 152.251 132.868 152.205L134.21 152.168C141.023 151.998 151.279 151.736 157.28 143.489C163.247 135.294 160.351 125.503 158.438 119.025L158.144 118.025C157.484 115.771 158.72 113.216 160.969 112.554C163.239 111.883 165.525 112.99 166.187 115.239L166.302 115.636L166.581 116.583C168.684 123.708 172.585 136.909 164.152 148.496ZM5.8288 91.5083C5.8288 85.3356 11.347 81.1264 16.2124 77.4153C18.8967 75.3668 22.2355 72.8185 22.8084 71.0556C23.4391 69.1142 22.2593 65.1192 21.2172 61.5934C19.5172 55.8457 17.5945 49.3347 21.0948 44.522C24.6291 39.6685 31.458 39.4934 37.4812 39.3404C40.9441 39.2537 45.257 39.1432 46.8584 37.9753C48.4207 36.8397 49.8368 32.8124 50.9758 29.5772C52.9886 23.8499 55.2717 17.3576 61.0483 15.4808C66.6379 13.6686 71.9334 17.3134 77.064 20.8392C80.1393 22.9523 83.626 25.3459 85.7527 25.3459C87.8794 25.3459 91.3644 22.9506 94.438 20.8392C99.5721 17.3151 104.888 13.6686 110.454 15.4808C116.235 17.3559 118.517 23.8499 120.53 29.5789C121.667 32.8141 123.081 36.8414 124.647 37.977C126.248 39.1432 130.556 39.2537 134.017 39.3421C140.047 39.4934 146.878 39.6685 150.411 44.5237C153.913 49.3364 151.988 55.8508 150.287 61.5968C149.244 65.1226 148.063 69.1159 148.694 71.0573C149.267 72.8185 152.607 75.3668 155.293 77.4153C160.162 81.1298 165.677 85.3373 165.677 91.5083C165.677 97.6811 160.162 101.89 155.293 105.601C152.609 107.652 149.267 110.2 148.694 111.959C148.063 113.901 149.246 117.897 150.287 121.422C151.988 127.169 153.914 133.68 150.411 138.495C146.875 143.35 140.044 143.52 134.017 143.675C130.553 143.761 126.245 143.874 124.639 145.04C123.078 146.177 121.664 150.203 120.526 153.439C118.513 159.167 116.235 165.661 110.454 167.538C104.893 169.36 99.5721 165.707 94.438 162.179C91.3627 160.066 87.8794 157.672 85.7527 157.672C83.6243 157.672 80.1376 160.068 77.0623 162.179C72.8735 165.059 68.5657 168.019 64.0896 168.019C63.0849 168.019 62.0734 167.869 61.05 167.538C55.2717 165.662 52.9886 159.167 50.9758 153.436C49.8385 150.203 48.4241 146.177 46.8635 145.04C45.2587 143.874 40.9492 143.761 37.4863 143.675C31.4597 143.522 24.6308 143.352 21.0948 138.495C17.5928 133.68 19.5172 127.169 21.2172 121.422C22.261 117.897 23.4408 113.902 22.8101 111.959C22.2372 110.195 18.8967 107.648 16.2141 105.601C11.3436 101.887 5.8288 97.6794 5.8288 91.5083ZM14.3271 91.5083C14.3271 93.4735 18.3969 96.5778 21.3651 98.8438C25.3635 101.894 29.4996 105.051 30.8919 109.338C32.3369 113.787 30.8256 118.895 29.3653 123.834C28.3963 127.113 26.9292 132.072 27.9645 133.492C29.0304 134.96 34.042 135.09 37.6988 135.181C42.8226 135.311 48.1181 135.447 51.8615 138.17C55.5641 140.863 57.3066 145.823 58.9913 150.621C60.2153 154.108 61.8915 158.879 63.6731 159.456C65.2915 159.995 69.4684 157.091 72.2479 155.177C76.5438 152.226 80.9859 149.176 85.7527 149.176C90.5161 149.176 94.9582 152.226 99.2524 155.177C102.029 157.083 106.212 159.966 107.831 159.456C109.607 158.879 111.283 154.106 112.507 150.624C114.197 145.827 115.94 140.863 119.637 138.17C123.384 135.448 128.679 135.311 133.802 135.181C137.458 135.09 142.472 134.962 143.538 133.492C144.571 132.072 143.106 127.113 142.135 123.834C140.675 118.895 139.163 113.787 140.608 109.338C142.002 105.051 146.137 101.897 150.137 98.8473C153.103 96.5794 157.175 93.4769 157.175 91.51C157.175 89.5448 153.109 86.4406 150.137 84.1745C146.137 81.1247 142.002 77.9678 140.608 73.6838C139.169 69.2349 140.675 64.1281 142.135 59.1896C143.106 55.9069 144.571 50.9497 143.538 49.5268C142.472 48.0597 137.462 47.9339 133.802 47.8404C128.681 47.7112 123.386 47.5769 119.642 44.8518C115.945 42.159 114.197 37.1967 112.512 32.4009C111.288 28.9176 109.612 24.144 107.831 23.5677C106.216 23.0407 102.029 25.9375 99.2524 27.8466C94.9565 30.7978 90.5161 33.8477 85.7527 33.8477C80.9859 33.8477 76.5455 30.7978 72.253 27.8466C69.4701 25.9358 65.2711 23.0475 63.6748 23.5677C61.8966 24.144 60.2204 28.9142 58.9964 32.3993C57.31 37.1967 55.5641 42.1556 51.8649 44.8501C48.1215 47.5752 42.8243 47.7095 37.7005 47.8404C34.0437 47.9339 29.0372 48.0597 27.9713 49.5251C26.936 50.9463 28.4014 55.9052 29.3721 59.1845C30.8307 64.1247 32.342 69.2332 30.897 73.6821C29.5047 77.9695 25.3686 81.123 21.3719 84.1728C18.3969 86.4355 14.3271 89.5397 14.3271 91.5083ZM41.7652 91.5083C41.7652 67.2561 61.4971 47.5242 85.7493 47.5242C110.002 47.5242 129.732 67.2561 129.732 91.5083C129.732 115.761 110.003 135.489 85.7493 135.489C61.4954 135.489 41.7652 115.761 41.7652 91.5083ZM50.2652 91.5083C50.2652 111.072 66.1823 126.991 85.7493 126.991C105.313 126.991 121.232 111.072 121.232 91.5083C121.232 71.9413 105.313 56.0242 85.7493 56.0242C66.1823 56.0225 50.2652 71.9396 50.2652 91.5083ZM74.8659 110.885C75.6819 111.64 76.7172 112.014 77.7508 112.014C78.8677 112.014 79.9795 111.579 80.8142 110.71L106.875 83.6186C108.502 81.9271 108.448 79.236 106.76 77.6091C105.066 75.9839 102.377 76.0298 100.75 77.7247L77.5791 101.814L66.9626 91.9996C65.2405 90.4067 62.5528 90.5138 60.9582 92.2359C59.3653 93.958 59.4707 96.6475 61.1945 98.2403L74.8659 110.885Z" fill="#299AB3"/>
</svg>
